{"asset":{"generator":"3D Builder","version":"2.0"},"scene":0,"scenes":[{"nodes":[0]}],"nodes":[{"mesh":0,"matrix":[1,0,0,0,0,-1.1920928955078125E-7,-0.99999988079071045,0,0,0.99999988079071045,-1.1920928955078125E-7,0,-1.5139579589984464E-9,-1.5139577369538415E-9,1.8047785270195561E-16,1]}],"meshes":[{"primitives":[{"attributes":{"POSITION":0,"TEXCOORD_0":5},"mode":4,"indices":10,"material":0},{"attributes":{"POSITION":1,"TEXCOORD_0":6},"mode":4,"indices":11,"material":0},{"attributes":{"POSITION":2,"TEXCOORD_0":7},"mode":4,"indices":12,"material":0},{"attributes":{"POSITION":3,"TEXCOORD_0":8},"mode":4,"indices":13,"material":0},{"attributes":{"POSITION":4,"TEXCOORD_0":9},"mode":4,"indices":14,"material":0}]}],"materials":[{"pbrMetallicRoughness":{"baseColorFactor":[1,1,1,1],"metallicFactor":0,"roughnessFactor":1,"baseColorTexture":{"index":0,"texCoord":0}}}],"textures":[{"source":0,"sampler":0}],"images":[{"uri":"texture_0.png"}],"samplers":[{"magFilter":9729,"wrapS":10497,"wrapT":10497}],"accessors":[{"bufferView":0,"byteOffset":0,"count":464,"componentType":5126,"type":"VEC3","min":[-0.019572418183088303,-0.003934797365218401,-0.0076606729999184608],"max":[0.012200299650430679,0.019830387085676193,0.019999990239739418]},{"bufferView":0,"byteOffset":5568,"count":631,"componentType":5126,"type":"VEC3","min":[-0.0045328992418944836,-0.005376697052270174,-0.019428456202149391],"max":[0.020000003278255463,0.019999988377094269,0.0173942930996418]},{"bufferView":0,"byteOffset":13140,"count":38,"componentType":5126,"type":"VEC3","min":[0.0076805013231933117,-0.0054652965627610683,0.0076606972143054008],"max":[0.0179671011865139,5.9604987612260629E-11,0.018272293731570244]},{"bufferView":0,"byteOffset":13596,"count":1248,"componentType":5126,"type":"VEC3","min":[-0.020000001415610313,-0.019999988377094269,-0.019874205812811852],"max":[0.01957239955663681,0.005376697052270174,0.019952090457081795]},{"bufferView":0,"byteOffset":28572,"count":387,"componentType":5126,"type":"VEC3","min":[-0.018205799162387848,-0.0054740961641073227,-0.01999998651444912],"max":[0.0080802999436855316,0.019092988222837448,-0.0035064260009676218]},{"bufferView":1,"byteOffset":0,"count":464,"componentType":5126,"type":"VEC2"},{"bufferView":1,"byteOffset":3712,"count":631,"componentType":5126,"type":"VEC2"},{"bufferView":1,"byteOffset":8760,"count":38,"componentType":5126,"type":"VEC2"},{"bufferView":1,"byteOffset":9064,"count":1248,"componentType":5126,"type":"VEC2"},{"bufferView":1,"byteOffset":19048,"count":387,"componentType":5126,"type":"VEC2"},{"bufferView":2,"byteOffset":0,"count":2487,"componentType":5125,"type":"SCALAR"},{"bufferView":2,"byteOffset":9948,"count":3486,"componentType":5125,"type":"SCALAR"},{"bufferView":2,"byteOffset":23892,"count":144,"componentType":5125,"type":"SCALAR"},{"bufferView":2,"byteOffset":24468,"count":7155,"componentType":5125,"type":"SCALAR"},{"bufferView":2,"byteOffset":53088,"count":2088,"componentType":5125,"type":"SCALAR"}],"bufferViews":[{"buffer":0,"byteOffset":0,"byteLength":33216,"byteStride":12,"target":34962},{"buffer":0,"byteOffset":33216,"byteLength":22144,"byteStride":8,"target":34962},{"buffer":0,"byteOffset":55360,"byteLength":61440,"target":34963}],"buffers":[{"byteLength":116800,"uri":"ball.bin"}]}